# xmcd
#
# Track frame offsets: 
#        150
#        15134
#        30868
#        48413
#        66439
#        88447
#        102332
#        120403
#        136163
#        155118
#
# Disc length: 2265 seconds
#
# Revision: 4
# Processed by: cddbd v1.5.2PL0 Copyright (c) Steve Scherf et al.
# Submitted via: ExactAudioCopy v0.99pb5
#
DISCID=7a08d70a
DTITLE=VAST - Turquoise
DYEAR=2005
DGENRE=Alternative
TTITLE0=Turquoise
TTITLE1=Ecstacy
TTITLE2=Be With Me
TTITLE3=Thrown Away
TTITLE4=Don't Take Your Love Away From Me
TTITLE5=Falling From The Sky
TTITLE6=Candle
TTITLE7=I Woke Up LA
TTITLE8=I Can't Say No (To You)
TTITLE9=Desert Garden
EXTD=
EXTT0=
EXTT1=
EXTT2=
EXTT3=
EXTT4=
EXTT5=
EXTT6=
EXTT7=
EXTT8=
EXTT9=
PLAYORDER=
